<svg width="50" height="37" xmlns="http://www.w3.org/2000/svg" fill="none">
 <defs>
  <filter id="svg_3_blur" x="-50%" y="-50%" width="200%" height="200%">
   <feGaussianBlur in="SourceGraphic" stdDeviation="0"/>
  </filter>
 </defs>
 <g>
  <title>Layer 1</title>
  <path transform="rotate(-18.5696 12.936 12.9851)" stroke="null" fill-rule="evenodd" clip-rule="evenodd" d="m14.53661,6.12932c-1.10364,1.24803 -2.76103,4.43946 -3.86699,6.05101c-1.10595,1.61166 -2.28675,2.53467 -2.76882,3.61857c-0.48205,1.08389 -0.81398,2.02379 -0.12349,2.88499c0.69047,0.86121 3.27902,1.86161 4.26636,2.28228c0.98734,0.42056 0.99111,0.32178 1.6577,0.24139c0.6666,-0.08028 1.76693,-0.33653 2.34185,-0.72352c0.57493,-0.38699 1.16288,-1.05704 1.10773,-1.5982c-0.05517,-0.54116 -0.85052,-1.30017 -1.4388,-1.64869c-0.58829,-0.34861 -1.6377,-0.34529 -2.09091,-0.44256c-0.4532,-0.09718 -0.48234,0.06532 -0.62834,-0.14079c-0.14599,-0.20601 -0.60436,-0.4691 -0.2476,-1.09566c0.35673,-0.62656 1.5937,-1.6367 2.38811,-2.6636c0.79441,-1.0269 1.82051,-2.34867 2.37851,-3.49798c0.55801,-1.14923 1.04058,-2.61009 0.96956,-3.39754c-0.07114,-0.78742 -0.53271,-1.32861 -1.19023,-1.30687c-0.65741,0.0217 -1.65103,0.18913 -2.75467,1.43717l0.00002,0.00001z" fill="#9DC3E6" id="svg_1" filter="url(#svg_3_blur)"/>
  <path transform="rotate(-12.1766 19.7391 17.3491)" stroke="null" fill-rule="evenodd" clip-rule="evenodd" d="m19.71451,6.5528c0.40048,0.80772 1.97152,1.91099 2.5876,2.48236c0.61606,0.57137 1.0782,0.45312 1.10892,0.94571c0.03084,0.49245 0.12322,0.49245 -0.92404,2.00936c-1.04738,1.51708 -3.92764,5.26013 -5.36,7.09234c-1.43241,1.83221 -2.15631,2.34439 -3.23447,3.90078c-1.07814,1.55639 -2.77239,4.21605 -3.23445,5.43744c-0.46206,1.22151 -0.18482,1.55639 0.46206,1.89141c0.6469,0.33487 2.57217,0.5319 3.41929,0.11811c0.84712,-0.41365 1.00115,-1.61545 1.66344,-2.60046c0.66229,-0.98502 0.87792,-1.33962 2.31035,-3.30982c1.43242,-1.97005 4.559,-6.16637 6.28412,-8.51076c1.72498,-2.34439 3.51164,-4.07809 4.06616,-5.55569c0.55452,-1.47746 -0.26184,-2.32466 -0.73928,-3.30967c-0.47755,-0.98502 -1.37088,-2.12777 -2.12558,-2.60046c-0.7547,-0.47285 -1.4016,-0.15772 -2.40272,-0.2365c-1.00112,-0.07878 -3.09586,-0.49245 -3.69652,-0.11825c-0.60064,0.37434 -0.58535,1.55639 -0.18488,2.36411z" fill="#5B9BD5" id="svg_2" filter="url(#svg_3_blur)"/>
  <path transform="rotate(-12.1766 31.9644 17.3019)" stroke="null" fill-rule="evenodd" clip-rule="evenodd" d="m30.55083,22.76795c0.79087,-0.97485 2.23812,-3.66226 3.05397,-4.89068c0.81585,-1.22843 1.4466,-1.77735 1.84094,-2.47965c0.39434,-0.70229 0.55171,-0.99893 0.52537,-1.73407c-0.02646,-0.73508 -0.32065,-2.30791 -0.68378,-2.67671c-0.36321,-0.36863 -0.87366,-0.19113 -1.49515,0.46432c-0.62161,0.65551 -1.5683,2.56454 -2.23391,3.46842c-0.66574,0.90394 -2.27036,2.83478 -2.87044,3.92494c-0.60008,1.09016 -0.68622,1.66563 -0.73025,2.61625c-0.04403,0.95062 0.46945,2.048 0.90162,2.2659c0.43218,0.2179 0.90066,0.01621 1.69164,-0.95871l-0.00002,-0.00002z" fill="#70AD47" id="svg_3"/>
  <path transform="rotate(-12.1766 37.4122 17.5981)" stroke="null" fill-rule="evenodd" clip-rule="evenodd" d="m34.00615,24.25279c1.3726,-0.11648 3.91027,-1.39091 5.41628,-1.80888c1.50604,-0.41807 2.82551,-0.19855 3.6199,-0.69916c0.79438,-0.50061 1.41136,-1.00688 1.14644,-2.30468c-0.2649,-1.29777 -2.06386,-4.30312 -2.7359,-5.48205c-0.67208,-1.17886 -0.71095,-1.09957 -1.29644,-1.59133c-0.58547,-0.49187 -1.59663,-1.20051 -2.2165,-1.35949c-0.61986,-0.15899 -1.35298,-0.09262 -1.50265,0.40535c-0.14966,0.49796 0.23975,1.79839 0.60477,2.58252c0.36499,0.78422 1.24217,1.66129 1.5853,2.12246c0.34316,0.46109 0.42625,0.34988 0.47358,0.64434c0.04736,0.29436 0.33482,0.89827 -0.18957,1.12217c-0.52437,0.22393 -1.92224,0.03004 -2.95674,0.22119c-1.03451,0.19115 -2.36905,0.43419 -3.25049,0.92572c-0.88141,0.49147 -1.81256,1.30631 -2.03805,2.02317c-0.22539,0.71692 -0.03582,1.55566 0.5209,2.0888c0.55662,0.53307 1.44658,1.22637 2.81919,1.10989l-0.00001,-0.00002z" fill="#9DC3E6" id="svg_6" filter="url(#svg_3_blur)"/>
  <path transform="rotate(-25.6757 9.93757 30.2701)" stroke="null" fill-rule="evenodd" clip-rule="evenodd" d="m12.38432,32.67756c-0.30605,-0.8916 -1.33016,-2.73019 -1.7603,-3.701c-0.43015,-0.97081 -0.55684,-1.62952 -0.82049,-2.12363c-0.26366,-0.4941 -0.37729,-0.69503 -0.76136,-0.84122c-0.38407,-0.14606 -1.26432,-0.25788 -1.54312,-0.03556c-0.27874,0.22243 -0.31321,0.69439 -0.12952,1.36969c0.18369,0.67541 0.93121,1.91272 1.23163,2.68223c0.30042,0.76962 0.89721,2.56783 1.30945,3.32463c0.41224,0.75682 0.6866,0.96146 1.16403,1.21647c0.47742,0.25501 1.16745,0.07261 1.38574,-0.24262c0.2183,-0.31523 0.23001,-0.75728 -0.07604,-1.64899l-0.00002,0.00002z" fill="#70AD47" id="svg_8"/>
 </g>
</svg>